<?xml version="1.0" encoding="UTF-8"?>
<svg width="72" height="72" version="1.1" viewBox="0 0 19.05 19.05" xmlns="http://www.w3.org/2000/svg">
	<defs>
		<clipPath id="clipPath7860">
			<circle cx="115.27" cy="135.33" r="9.1406"/>
		</clipPath>
		<clipPath id="clipPath7864">
			<circle cx="115.27" cy="135.33" r="9.1406"/>
		</clipPath>
	</defs>
	<g transform="translate(-106.13 -126.19)">
		<rect transform="matrix(1.0421 0 0 1.0421 -4.4639 -5.3074)" x="106.13" y="126.19" width="18.281" height="18.281" clip-path="url(#clipPath7864)" fill="#1b1b1b"/>
		<g transform="matrix(1.0421 0 0 1.0421 -4.4639 -5.3074)" clip-path="url(#clipPath7860)" stroke-width=".95964">
			<path d="m132.15 142c-10.707-9.0354-17.374-8.908-17.374-8.908s2.3881 3.4829 0.94799 7.4545c-1.4401 3.9716-7.6664 7.7467-7.6664 7.7467z" fill="#fff"/>
			<path d="m108.89 148.35s6.2294-3.8135 7.6695-7.7851c1.4401-3.9716-1.7851-7.4745-1.7851-7.4745s1.2204 3.091-1.0184 6.7752c-2.239 3.6841-8.9226 4.9787-8.9226 4.9787z" fill="#e7e7e7"/>
			<path d="m105.93 146.03s6.6058-2.1876 8.8448-5.8717c2.2387-3.6841-5e-3 -7.0674-5e-3 -7.0674s-1.3628 3.2487-4.9368 5.2561-10.125 2.2728-10.125 2.2728z" fill="#c6c6c6"/>
		</g>
	</g>
</svg>
