<?xml version="1.0" standalone="no"?>
<!DOCTYPE svg PUBLIC "-//W3C//DTD SVG 20010904//EN"
 "http://www.w3.org/TR/2001/REC-SVG-20010904/DTD/svg10.dtd">
<svg version="1.0" xmlns="http://www.w3.org/2000/svg"
 width="700.000000pt" height="700.000000pt" viewBox="0 0 700.000000 700.000000"
 preserveAspectRatio="xMidYMid meet">
<metadata>
Created by potrace 1.14, written by Peter Selinger 2001-2017
</metadata>
<g transform="translate(0.000000,700.000000) scale(0.100000,-0.100000)"
fill="#000000" stroke="none">
<path d="M3327 6994 c-1 -1 -47 -4 -103 -8 -55 -4 -110 -8 -122 -11 -11 -2
-45 -6 -74 -9 -29 -4 -65 -8 -80 -11 -16 -3 -39 -7 -53 -9 -337 -59 -654 -165
-970 -326 -365 -185 -635 -383 -918 -670 -436 -443 -735 -969 -893 -1570 -14
-52 -27 -106 -30 -120 -2 -14 -7 -36 -10 -50 -10 -41 -12 -53 -29 -166 -24
-164 -24 -162 -32 -264 -9 -119 -9 -456 0 -574 7 -80 20 -189 32 -257 3 -14 7
-41 9 -60 3 -19 14 -77 26 -129 63 -285 145 -523 272 -790 269 -564 718 -1071
1248 -1412 411 -264 845 -433 1323 -513 200 -33 355 -45 584 -45 177 0 267 6
453 26 93 10 308 53 450 90 728 191 1398 640 1872 1254 78 101 216 311 282
430 182 325 342 781 391 1112 21 148 23 167 32 263 10 115 10 547 0 645 -39
380 -126 724 -270 1065 -45 107 -180 361 -253 476 -196 310 -443 594 -709 814
-33 28 -62 53 -65 56 -12 14 -202 150 -280 201 -248 161 -564 313 -805 388
-22 7 -51 17 -64 22 -36 13 -320 85 -366 92 -36 6 -70 12 -129 22 -44 8 -176
24 -251 30 -71 6 -462 13 -468 8z"/>
</g>
</svg>
